
<svg xmlns="http://www.w3.org/2000/svg" version="1.1" xmlns:xlink="http://www.w3.org/1999/xlink" xmlns:svgjs="http://svgjs.dev/svgjs" width="1440" height="560" preserveAspectRatio="none" viewBox="0 0 1440 560"><g mask="url(&quot;#SvgjsMask1010&quot;)" fill="none"><path d="M 0,28 C 57.6,69.4 172.8,226.6 288,235 C 403.2,243.4 460.8,75.6 576,70 C 691.2,64.4 748.8,219.2 864,207 C 979.2,194.8 1036.8,-4.2 1152,9 C 1267.2,22.2 1382.4,220.2 1440,273L1440 560L0 560z" fill="rgba(192, 223, 255, 1)"></path><path d="M 0,498 C 57.6,476 172.8,403 288,388 C 403.2,373 460.8,432.4 576,423 C 691.2,413.6 748.8,339.2 864,341 C 979.2,342.8 1036.8,430.6 1152,432 C 1267.2,433.4 1382.4,364.8 1440,348L1440 560L0 560z" fill="rgba(0, 123, 255, 1)"></path></g><defs><mask id="SvgjsMask1010"><rect width="1440" height="560" fill="#ffffff"></rect></mask></defs></svg>