<svg xmlns="http://www.w3.org/2000/svg" version="1.1" xmlns:xlink="http://www.w3.org/1999/xlink" xmlns:svgjs="http://svgjs.dev/svgjs" width="1440" height="560" preserveAspectRatio="none" viewBox="0 0 1440 560"><g mask="url(&quot;#SvgjsMask1005&quot;)" fill="none"><path d="M 0,23 C 57.6,69.2 172.8,231.4 288,254 C 403.2,276.6 460.8,153.8 576,136 C 691.2,118.2 748.8,179.8 864,165 C 979.2,150.2 1036.8,62 1152,62 C 1267.2,62 1382.4,144.4 1440,165L1440 560L0 560z" fill="rgba(192, 223, 255, 1)"></path><path d="M 0,533 C 96,494.4 288,347.8 480,340 C 672,332.2 768,478.6 960,494 C 1152,509.4 1344,432.4 1440,417L1440 560L0 560z" fill="rgba(0, 123, 255, 1)"></path></g><defs><mask id="SvgjsMask1005"><rect width="1440" height="560" fill="#ffffff"></rect></mask></defs></svg>